<svg xmlns="http://www.w3.org/2000/svg" viewBox="0 0 512 512" width="512" height="512">
  <defs>
    <linearGradient id="tile" x1="0" y1="0" x2="512" y2="512" gradientUnits="userSpaceOnUse">
      <stop stop-color="#818cf8"/>
      <stop offset="0.55" stop-color="#6366f1"/>
      <stop offset="1" stop-color="#4f46e5"/>
    </linearGradient>
    <linearGradient id="spark" x1="0" y1="0" x2="0" y2="1">
      <stop stop-color="#fef3c7"/>
      <stop offset="1" stop-color="#fbbf24"/>
    </linearGradient>
  </defs>

  <rect width="512" height="512" rx="144" fill="url(#tile)"/>
  <rect width="512" height="512" rx="144" fill="#ffffff" fill-opacity="0.06"/>

  <path d="M256 176 C 204.8 144, 144 144, 96 169.6 L 96 352 C 144 326.4, 204.8 326.4, 256 358.4 Z" fill="#ffffff" fill-opacity="0.96"/>
  <path d="M256 176 C 307.2 144, 368 144, 416 169.6 L 416 352 C 368 326.4, 307.2 326.4, 256 358.4 Z" fill="#ffffff" fill-opacity="0.78"/>
  <path d="M256 176 L256 358.4" stroke="#4f46e5" stroke-opacity="0.3" stroke-width="13" stroke-linecap="round"/>

  <path d="M392 64 L404 100 L440 112 L404 124 L392 160 L380 124 L344 112 L380 100 Z" fill="url(#spark)"/>
</svg>
